<svg version="1.1" id="Layer_1" xmlns="http://www.w3.org/2000/svg" xmlns:xlink="http://www.w3.org/1999/xlink" x="0px" y="0px"
	 width="115px" height="34px" viewBox="0 0 115 34" style="enable-background:new 0 0 115 34;" xml:space="preserve">
<g>
	<path style="fill:#A6A6A6;" d="M110.908,33.783H4.028C1.808,33.783,0,31.986,0,29.786V3.992C0,1.791,1.808,0,4.028,0h106.88
		C113.129,0,115,1.791,115,3.992v25.794C115,31.986,113.129,33.783,110.908,33.783L110.908,33.783z"/>
	<path d="M114.176,29.786c0,1.788-1.46,3.235-3.268,3.235H4.028c-1.805,0-3.27-1.448-3.27-3.235V3.991
		c0-1.787,1.465-3.239,3.27-3.239h106.88c1.808,0,3.267,1.452,3.267,3.239L114.176,29.786L114.176,29.786z"/>
	<g>
		<g>
			<path style="fill:#FFFFFF;" d="M25.665,16.709c-0.025-2.722,2.248-4.046,2.352-4.108c-1.288-1.861-3.283-2.115-3.984-2.135
				c-1.675-0.175-3.301,0.994-4.154,0.994c-0.871,0-2.185-0.977-3.602-0.948c-1.822,0.028-3.528,1.074-4.463,2.699
				c-1.93,3.313-0.49,8.183,1.359,10.86c0.925,1.313,2.006,2.776,3.421,2.725c1.384-0.057,1.901-0.875,3.572-0.875
				c1.655,0,2.141,0.875,3.584,0.842c1.485-0.023,2.421-1.317,3.313-2.641c1.069-1.503,1.499-2.984,1.515-3.061
				C28.543,21.05,25.693,19.972,25.665,16.709z"/>
			<path style="fill:#FFFFFF;" d="M22.939,8.705c0.745-0.923,1.254-2.179,1.112-3.454c-1.077,0.047-2.425,0.739-3.201,1.642
				c-0.687,0.796-1.3,2.1-1.142,3.326C20.919,10.308,22.162,9.613,22.939,8.705z"/>
		</g>
	</g>
	<g>
		<path style="fill:#FFFFFF;" d="M45.698,26.607h-1.935l-1.06-3.301H39.02l-1.009,3.301h-1.884l3.649-11.239h2.254L45.698,26.607z
			 M42.384,21.921l-0.958-2.935c-0.102-0.3-0.292-1.006-0.572-2.117H40.82c-0.111,0.478-0.291,1.184-0.538,2.117l-0.941,2.935
			H42.384z"/>
		<path style="fill:#FFFFFF;" d="M55.083,22.456c0,1.379-0.375,2.468-1.127,3.268c-0.673,0.712-1.509,1.067-2.506,1.067
			c-1.078,0-1.851-0.383-2.321-1.15h-0.035v4.27h-1.816v-8.739c0-0.866-0.023-1.756-0.067-2.668h1.598l0.102,1.285h0.033
			c0.606-0.968,1.525-1.451,2.758-1.451c0.965,0,1.77,0.378,2.414,1.133C54.76,20.227,55.083,21.222,55.083,22.456z M53.232,22.521
			c0-0.788-0.179-1.439-0.539-1.951c-0.393-0.533-0.92-0.8-1.581-0.8c-0.448,0-0.855,0.148-1.219,0.441
			c-0.364,0.296-0.603,0.682-0.714,1.16c-0.056,0.223-0.085,0.404-0.085,0.548v1.353c0,0.589,0.182,1.086,0.547,1.492
			c0.365,0.406,0.838,0.609,1.421,0.609c0.685,0,1.217-0.263,1.597-0.784C53.042,24.067,53.232,23.378,53.232,22.521z"/>
		<path style="fill:#FFFFFF;" d="M64.485,22.456c0,1.379-0.377,2.468-1.129,3.268c-0.672,0.712-1.507,1.067-2.505,1.067
			c-1.077,0-1.851-0.383-2.32-1.15h-0.035v4.27h-1.815v-8.739c0-0.866-0.024-1.756-0.068-2.668h1.598l0.102,1.285h0.034
			c0.604-0.968,1.523-1.451,2.757-1.451c0.963,0,1.769,0.378,2.414,1.133C64.162,20.227,64.485,21.222,64.485,22.456z
			 M62.634,22.521c0-0.788-0.179-1.439-0.538-1.951c-0.394-0.533-0.918-0.8-1.581-0.8c-0.449,0-0.855,0.148-1.22,0.441
			c-0.364,0.296-0.602,0.682-0.713,1.16c-0.057,0.223-0.086,0.404-0.086,0.548v1.353c0,0.589,0.183,1.086,0.546,1.492
			c0.364,0.406,0.838,0.609,1.423,0.609c0.684,0,1.216-0.263,1.597-0.784C62.443,24.067,62.634,23.378,62.634,22.521z"/>
		<path style="fill:#FFFFFF;" d="M74.996,23.455c0,0.957-0.335,1.734-1.006,2.335c-0.739,0.656-1.768,0.984-3.088,0.984
			c-1.221,0-2.199-0.233-2.938-0.7l0.421-1.501c0.797,0.478,1.672,0.718,2.626,0.718c0.684,0,1.215-0.153,1.599-0.46
			c0.381-0.306,0.57-0.716,0.57-1.228c0-0.457-0.157-0.84-0.472-1.152c-0.312-0.312-0.835-0.601-1.563-0.868
			c-1.985-0.734-2.976-1.81-2.976-3.224c0-0.924,0.348-1.682,1.043-2.271c0.693-0.59,1.618-0.885,2.774-0.885
			c1.031,0,1.889,0.179,2.573,0.534l-0.454,1.468c-0.639-0.345-1.361-0.518-2.17-0.518c-0.64,0-1.139,0.156-1.496,0.468
			c-0.302,0.277-0.453,0.616-0.453,1.018c0,0.444,0.172,0.813,0.52,1.101c0.303,0.268,0.853,0.556,1.65,0.868
			c0.975,0.389,1.69,0.844,2.151,1.365C74.767,22.027,74.996,22.679,74.996,23.455z"/>
		<path style="fill:#FFFFFF;" d="M81.001,19.854h-2.002v3.935c0,1.001,0.353,1.501,1.061,1.501c0.323,0,0.594-0.027,0.807-0.083
			l0.05,1.367c-0.357,0.133-0.828,0.199-1.412,0.199c-0.717,0-1.278-0.217-1.683-0.65c-0.403-0.435-0.605-1.162-0.605-2.185v-4.086
			h-1.193v-1.351h1.193v-1.485l1.783-0.533v2.019h2.002V19.854z"/>
		<path style="fill:#FFFFFF;" d="M90.033,22.488c0,1.246-0.358,2.269-1.076,3.068c-0.753,0.823-1.751,1.234-2.996,1.234
			c-1.199,0-2.154-0.395-2.866-1.183c-0.712-0.789-1.068-1.785-1.068-2.985c0-1.256,0.367-2.285,1.102-3.085
			c0.733-0.801,1.724-1.2,2.967-1.2c1.2,0,2.165,0.395,2.895,1.184C89.686,20.288,90.033,21.276,90.033,22.488z M88.148,22.546
			c0-0.747-0.16-1.387-0.486-1.922c-0.381-0.647-0.926-0.97-1.631-0.97c-0.73,0-1.285,0.323-1.666,0.97
			c-0.327,0.535-0.487,1.187-0.487,1.957c0,0.747,0.16,1.388,0.487,1.922c0.394,0.646,0.942,0.97,1.65,0.97
			c0.693,0,1.237-0.33,1.631-0.986C87.98,23.941,88.148,23.294,88.148,22.546z"/>
		<path style="fill:#FFFFFF;" d="M95.937,20.087c-0.18-0.033-0.371-0.05-0.572-0.05c-0.639,0-1.134,0.238-1.481,0.718
			c-0.302,0.422-0.454,0.956-0.454,1.6v4.253h-1.814l0.017-5.553c0-0.934-0.022-1.784-0.068-2.551h1.582l0.067,1.551h0.049
			c0.193-0.533,0.494-0.963,0.909-1.284c0.403-0.289,0.841-0.434,1.312-0.434c0.169,0,0.32,0.012,0.455,0.032V20.087z"/>
		<path style="fill:#FFFFFF;" d="M104.059,22.172c0,0.322-0.021,0.595-0.065,0.816h-5.449c0.021,0.801,0.284,1.414,0.79,1.836
			c0.459,0.377,1.053,0.566,1.783,0.566c0.806,0,1.543-0.128,2.204-0.383l0.284,1.249c-0.773,0.334-1.686,0.501-2.74,0.501
			c-1.268,0-2.263-0.37-2.987-1.108c-0.722-0.739-1.084-1.732-1.084-2.976c0-1.223,0.337-2.24,1.012-3.052
			c0.705-0.867,1.658-1.3,2.857-1.3c1.178,0,2.07,0.433,2.676,1.3C103.817,20.31,104.059,21.161,104.059,22.172z M102.327,21.705
			c0.011-0.534-0.106-0.995-0.353-1.384c-0.315-0.502-0.798-0.752-1.447-0.752c-0.595,0-1.077,0.244-1.446,0.734
			c-0.302,0.39-0.481,0.857-0.537,1.399h3.783V21.705z"/>
	</g>
	<g>
		<g>
			<path style="fill:#FFFFFF;" d="M41.783,8.453c0,0.994-0.301,1.743-0.9,2.245c-0.557,0.463-1.347,0.696-2.372,0.696
				c-0.508,0-0.941-0.022-1.306-0.066V5.897c0.475-0.076,0.986-0.115,1.538-0.115c0.975,0,1.71,0.21,2.207,0.631
				C41.505,6.888,41.783,7.568,41.783,8.453z M40.842,8.478c0-0.645-0.172-1.139-0.516-1.483c-0.344-0.344-0.847-0.516-1.509-0.516
				c-0.281,0-0.52,0.019-0.718,0.058v4.129c0.11,0.017,0.311,0.024,0.603,0.024c0.683,0,1.211-0.188,1.582-0.565
				C40.655,9.748,40.842,9.199,40.842,8.478z"/>
			<path style="fill:#FFFFFF;" d="M46.775,9.322c0,0.612-0.177,1.114-0.529,1.507c-0.37,0.405-0.86,0.606-1.471,0.606
				c-0.589,0-1.059-0.193-1.409-0.582c-0.35-0.388-0.524-0.877-0.524-1.467c0-0.616,0.179-1.122,0.541-1.515
				c0.361-0.393,0.847-0.589,1.458-0.589c0.589,0,1.063,0.193,1.422,0.581C46.604,8.24,46.775,8.727,46.775,9.322z M45.848,9.35
				c0-0.367-0.08-0.682-0.239-0.945c-0.188-0.317-0.454-0.476-0.8-0.476c-0.358,0-0.632,0.159-0.819,0.476
				c-0.16,0.263-0.239,0.583-0.239,0.961c0,0.368,0.08,0.683,0.239,0.945c0.193,0.317,0.463,0.476,0.81,0.476
				c0.341,0,0.608-0.161,0.801-0.485C45.766,10.035,45.848,9.718,45.848,9.35z"/>
			<path style="fill:#FFFFFF;" d="M53.467,7.364l-1.257,3.981h-0.818l-0.521-1.729c-0.132-0.432-0.239-0.861-0.323-1.287h-0.016
				c-0.078,0.438-0.185,0.866-0.323,1.287l-0.553,1.729H48.83l-1.181-3.981h0.917l0.454,1.892c0.109,0.448,0.2,0.875,0.273,1.278
				h0.016c0.067-0.333,0.176-0.757,0.332-1.27l0.569-1.9h0.728l0.546,1.86c0.132,0.454,0.239,0.89,0.322,1.311h0.025
				c0.061-0.41,0.152-0.846,0.273-1.311l0.486-1.86L53.467,7.364L53.467,7.364z"/>
			<path style="fill:#FFFFFF;" d="M58.095,11.345h-0.893v-2.28c0-0.703-0.269-1.054-0.81-1.054c-0.265,0-0.479,0.097-0.645,0.29
				C55.584,8.494,55.5,8.722,55.5,8.983v2.362h-0.893V8.501c0-0.35-0.012-0.729-0.032-1.14h0.784l0.042,0.623h0.025
				c0.104-0.193,0.259-0.353,0.462-0.48c0.242-0.149,0.513-0.224,0.81-0.224c0.375,0,0.687,0.12,0.934,0.36
				c0.31,0.295,0.463,0.735,0.463,1.319V11.345z"/>
			<path style="fill:#FFFFFF;" d="M60.557,11.345h-0.893V5.537h0.893V11.345z"/>
			<path style="fill:#FFFFFF;" d="M65.813,9.322c0,0.612-0.176,1.114-0.528,1.507c-0.37,0.405-0.861,0.606-1.472,0.606
				c-0.59,0-1.061-0.193-1.409-0.582c-0.35-0.388-0.524-0.877-0.524-1.467c0-0.616,0.18-1.122,0.54-1.515
				c0.363-0.393,0.848-0.589,1.458-0.589c0.591,0,1.064,0.193,1.424,0.581C65.642,8.24,65.813,8.727,65.813,9.322z M64.886,9.35
				c0-0.367-0.08-0.682-0.239-0.945c-0.188-0.317-0.455-0.476-0.8-0.476c-0.36,0-0.633,0.159-0.819,0.476
				c-0.16,0.263-0.238,0.583-0.238,0.961c0,0.368,0.08,0.683,0.238,0.945c0.193,0.317,0.463,0.476,0.811,0.476
				c0.341,0,0.606-0.161,0.8-0.485C64.804,10.035,64.886,9.718,64.886,9.35z"/>
			<path style="fill:#FFFFFF;" d="M70.133,11.345h-0.802l-0.066-0.458H69.24c-0.274,0.365-0.665,0.549-1.174,0.549
				c-0.378,0-0.685-0.121-0.915-0.361c-0.21-0.218-0.315-0.489-0.315-0.811c0-0.486,0.205-0.857,0.616-1.114
				c0.411-0.257,0.988-0.383,1.732-0.377V8.699c0-0.524-0.277-0.786-0.835-0.786c-0.396,0-0.745,0.099-1.047,0.295l-0.181-0.582
				c0.372-0.229,0.833-0.344,1.378-0.344c1.05,0,1.574,0.549,1.574,1.647v1.466C70.074,10.793,70.096,11.11,70.133,11.345z
				 M69.207,9.977V9.363c-0.985-0.017-1.478,0.251-1.478,0.803c0,0.208,0.056,0.363,0.171,0.467
				c0.114,0.104,0.262,0.155,0.436,0.155c0.196,0,0.38-0.061,0.546-0.184c0.168-0.124,0.271-0.28,0.31-0.472
				C69.201,10.089,69.207,10.037,69.207,9.977z"/>
			<path style="fill:#FFFFFF;" d="M75.206,11.345h-0.792l-0.042-0.639h-0.024c-0.253,0.486-0.684,0.729-1.29,0.729
				c-0.484,0-0.886-0.188-1.206-0.565c-0.319-0.377-0.479-0.866-0.479-1.466c0-0.645,0.173-1.167,0.521-1.565
				c0.336-0.372,0.749-0.557,1.239-0.557c0.539,0,0.917,0.18,1.132,0.541h0.016V5.537h0.895v4.735
				C75.175,10.66,75.185,11.018,75.206,11.345z M74.28,9.666V9.002c0-0.115-0.008-0.208-0.024-0.279
				c-0.051-0.213-0.157-0.392-0.323-0.537c-0.165-0.144-0.365-0.217-0.597-0.217c-0.333,0-0.594,0.131-0.785,0.394
				c-0.19,0.263-0.286,0.598-0.286,1.008c0,0.394,0.091,0.713,0.274,0.958c0.193,0.262,0.454,0.393,0.78,0.393
				c0.292,0,0.527-0.109,0.705-0.328C74.195,10.193,74.28,9.95,74.28,9.666z"/>
			<path style="fill:#FFFFFF;" d="M82.841,9.322c0,0.612-0.177,1.114-0.529,1.507c-0.369,0.405-0.858,0.606-1.471,0.606
				c-0.589,0-1.058-0.193-1.409-0.582c-0.35-0.388-0.523-0.877-0.523-1.467c0-0.616,0.179-1.122,0.54-1.515
				c0.361-0.393,0.848-0.589,1.459-0.589c0.589,0,1.063,0.193,1.421,0.581C82.669,8.24,82.841,8.727,82.841,9.322z M81.916,9.35
				c0-0.367-0.08-0.682-0.239-0.945c-0.188-0.317-0.454-0.476-0.802-0.476c-0.358,0-0.631,0.159-0.818,0.476
				c-0.161,0.263-0.239,0.583-0.239,0.961c0,0.368,0.079,0.683,0.239,0.945c0.192,0.317,0.462,0.476,0.81,0.476
				c0.341,0,0.608-0.161,0.802-0.485C81.833,10.035,81.916,9.718,81.916,9.35z"/>
			<path style="fill:#FFFFFF;" d="M87.641,11.345h-0.892v-2.28c0-0.703-0.27-1.054-0.811-1.054c-0.264,0-0.478,0.097-0.644,0.29
				c-0.164,0.193-0.248,0.421-0.248,0.682v2.362h-0.894V8.501c0-0.35-0.01-0.729-0.031-1.14h0.783l0.042,0.623h0.025
				c0.104-0.193,0.26-0.353,0.463-0.48c0.242-0.149,0.512-0.224,0.81-0.224c0.374,0,0.686,0.12,0.934,0.36
				c0.31,0.295,0.462,0.735,0.462,1.319V11.345z"/>
			<path style="fill:#FFFFFF;" d="M93.648,8.027h-0.981v1.934c0,0.492,0.173,0.737,0.519,0.737c0.161,0,0.294-0.014,0.398-0.041
				l0.023,0.671c-0.176,0.066-0.408,0.098-0.694,0.098c-0.352,0-0.626-0.106-0.824-0.319c-0.199-0.213-0.299-0.571-0.299-1.074
				V8.027h-0.587V7.364h0.587v-0.73l0.876-0.262v0.991h0.982V8.027L93.648,8.027z"/>
			<path style="fill:#FFFFFF;" d="M98.376,11.345h-0.894V9.082c0-0.713-0.27-1.071-0.809-1.071c-0.415,0-0.697,0.207-0.853,0.621
				C95.795,8.718,95.78,8.825,95.78,8.95v2.395h-0.893V5.537h0.893v2.399h0.017c0.281-0.437,0.684-0.654,1.206-0.654
				c0.369,0,0.676,0.12,0.919,0.36c0.302,0.3,0.454,0.746,0.454,1.335V11.345z"/>
			<path style="fill:#FFFFFF;" d="M103.25,9.166c0,0.159-0.012,0.292-0.033,0.401h-2.676c0.011,0.394,0.139,0.693,0.387,0.901
				c0.227,0.186,0.519,0.279,0.876,0.279c0.396,0,0.758-0.063,1.082-0.188l0.14,0.615c-0.38,0.164-0.828,0.246-1.347,0.246
				c-0.622,0-1.111-0.181-1.466-0.544c-0.356-0.363-0.533-0.851-0.533-1.462c0-0.601,0.165-1.101,0.496-1.5
				c0.346-0.425,0.814-0.639,1.404-0.639c0.577,0,1.017,0.213,1.313,0.639C103.132,8.251,103.25,8.67,103.25,9.166z M102.398,8.938
				c0.007-0.263-0.052-0.489-0.173-0.68c-0.154-0.246-0.391-0.369-0.711-0.369c-0.29,0-0.528,0.12-0.71,0.361
				c-0.147,0.192-0.236,0.421-0.264,0.688H102.398z"/>
		</g>
	</g>
</g>
</svg>
