<svg version="1.1" id="Layer_1" xmlns="http://www.w3.org/2000/svg" xmlns:xlink="http://www.w3.org/1999/xlink" x="0px" y="0px"
	 width="115px" height="34px" viewBox="0 0 115 34" style="enable-background:new 0 0 115 34;" xml:space="preserve">
<g>
	<rect x="-8.297" y="-7.8" style="fill:#FFFFFF;fill-opacity:0;" width="131.797" height="50.064"/>
	<g>
		<path d="M110.746,33.92H4.458c-2.339,0-4.251-1.878-4.251-4.172V4.716c0-2.295,1.913-4.172,4.251-4.172h106.289
			c2.337,0,4.25,1.877,4.25,4.172v25.032C114.996,32.042,113.083,33.92,110.746,33.92z"/>
	</g>
	<g>
		<g>
			<path style="fill:#A6A6A6;" d="M110.746,1.211c1.97,0,3.569,1.572,3.569,3.505v25.032c0,1.933-1.6,3.503-3.569,3.503H4.458
				c-1.969,0-3.571-1.57-3.571-3.503V4.716c0-1.933,1.602-3.505,3.571-3.505H110.746 M110.746,0.544H4.458
				c-2.339,0-4.251,1.877-4.251,4.172v25.032c0,2.294,1.913,4.172,4.251,4.172h106.289c2.337,0,4.25-1.878,4.25-4.172V4.716
				C114.996,2.421,113.083,0.544,110.746,0.544L110.746,0.544z"/>
		</g>
	</g>
	<g>
		<path style="fill:#FFFFFF;stroke:#FFFFFF;stroke-width:0.2;stroke-miterlimit:10;" d="M40.525,9.09
			c0,0.699-0.211,1.256-0.633,1.671c-0.479,0.495-1.106,0.741-1.875,0.741c-0.735,0-1.362-0.25-1.876-0.751
			c-0.517-0.501-0.774-1.123-0.774-1.864c0-0.741,0.257-1.362,0.774-1.863c0.515-0.501,1.141-0.751,1.876-0.751
			c0.365,0,0.715,0.07,1.048,0.209c0.332,0.141,0.598,0.327,0.797,0.56l-0.449,0.44c-0.337-0.396-0.802-0.594-1.396-0.594
			c-0.536,0-1.002,0.186-1.394,0.556c-0.391,0.371-0.587,0.853-0.587,1.444c0,0.592,0.196,1.074,0.587,1.444
			c0.392,0.371,0.858,0.556,1.394,0.556c0.569,0,1.044-0.186,1.425-0.559c0.247-0.243,0.39-0.581,0.428-1.014h-1.854V8.713h2.473
			C40.513,8.843,40.525,8.969,40.525,9.09z"/>
		<path style="fill:#FFFFFF;stroke:#FFFFFF;stroke-width:0.2;stroke-miterlimit:10;" d="M44.445,7h-2.324v1.587h2.096v0.602h-2.096
			v1.587h2.324v0.615h-2.978V6.384h2.978V7z"/>
		<path style="fill:#FFFFFF;stroke:#FFFFFF;stroke-width:0.2;stroke-miterlimit:10;" d="M47.209,11.391h-0.656V7h-1.425V6.384h3.506
			V7h-1.426V11.391z"/>
		<path style="fill:#FFFFFF;stroke:#FFFFFF;stroke-width:0.2;stroke-miterlimit:10;" d="M51.171,11.391V6.384h0.655v5.006H51.171z"
			/>
		<path style="fill:#FFFFFF;stroke:#FFFFFF;stroke-width:0.2;stroke-miterlimit:10;" d="M54.734,11.391h-0.656V7h-1.425V6.384h3.506
			V7h-1.426V11.391z"/>
		<path style="fill:#FFFFFF;stroke:#FFFFFF;stroke-width:0.2;stroke-miterlimit:10;" d="M62.796,10.744
			c-0.501,0.505-1.126,0.758-1.871,0.758s-1.369-0.253-1.87-0.758c-0.501-0.506-0.75-1.125-0.75-1.857
			c0-0.731,0.249-1.351,0.75-1.856c0.501-0.506,1.125-0.759,1.87-0.759c0.743,0,1.364,0.254,1.868,0.762
			c0.503,0.508,0.754,1.125,0.754,1.853C63.547,9.619,63.296,10.238,62.796,10.744z M59.538,10.325
			c0.378,0.375,0.839,0.563,1.387,0.563c0.547,0,1.009-0.188,1.387-0.563c0.377-0.375,0.566-0.854,0.566-1.438
			c0-0.583-0.189-1.061-0.566-1.437c-0.378-0.375-0.84-0.563-1.387-0.563c-0.548,0-1.009,0.188-1.387,0.563
			c-0.375,0.376-0.564,0.854-0.564,1.437C58.974,9.47,59.163,9.949,59.538,10.325z"/>
		<path style="fill:#FFFFFF;stroke:#FFFFFF;stroke-width:0.2;stroke-miterlimit:10;" d="M64.467,11.391V6.384h0.799l2.48,3.895
			h0.027l-0.027-0.964v-2.93H68.4v5.006h-0.684l-2.594-4.083h-0.028l0.028,0.965v3.118H64.467z"/>
	</g>
	<path style="fill:#FFFFFF;" d="M58.141,18.693c-1.999,0-3.628,1.491-3.628,3.548c0,2.044,1.629,3.55,3.628,3.55
		c2.002,0,3.631-1.506,3.631-3.55C61.771,20.185,60.143,18.693,58.141,18.693z M58.141,24.393c-1.093,0-2.041-0.887-2.041-2.151
		c0-1.276,0.947-2.149,2.041-2.149c1.097,0,2.041,0.873,2.041,2.149C60.182,23.506,59.237,24.393,58.141,24.393z M50.223,18.693
		c-2,0-3.631,1.491-3.631,3.548c0,2.044,1.631,3.55,3.631,3.55s3.631-1.506,3.631-3.55C53.854,20.185,52.222,18.693,50.223,18.693z
		 M50.223,24.393c-1.096,0-2.041-0.887-2.041-2.151c0-1.276,0.945-2.149,2.041-2.149c1.096,0,2.041,0.873,2.041,2.149
		C52.263,23.506,51.318,24.393,50.223,24.393z M40.802,19.782v1.505h3.67c-0.109,0.847-0.396,1.466-0.835,1.895
		c-0.535,0.525-1.37,1.104-2.835,1.104c-2.26,0-4.027-1.788-4.027-4.006c0-2.219,1.767-4.007,4.027-4.007
		c1.219,0,2.109,0.472,2.767,1.076l1.083-1.062c-0.918-0.86-2.138-1.519-3.85-1.519c-3.097,0-5.7,2.473-5.7,5.511
		c0,3.037,2.603,5.512,5.7,5.512c1.671,0,2.931-0.538,3.918-1.547c1.014-0.993,1.329-2.392,1.329-3.521
		c0-0.349-0.028-0.671-0.083-0.94H40.802z M79.326,20.951c-0.299-0.793-1.217-2.258-3.095-2.258c-1.863,0-3.411,1.438-3.411,3.548
		c0,1.99,1.534,3.55,3.589,3.55c1.657,0,2.618-0.995,3.015-1.572l-1.233-0.808c-0.411,0.593-0.973,0.981-1.781,0.981
		c-0.808,0-1.382-0.363-1.752-1.076l4.834-1.962L79.326,20.951z M74.397,22.134c-0.043-1.371,1.082-2.069,1.889-2.069
		c0.632,0,1.164,0.31,1.344,0.753L74.397,22.134z M70.465,25.575h1.588V15.145h-1.588V25.575z M67.861,19.486h-0.054
		c-0.356-0.417-1.042-0.793-1.904-0.793c-1.809,0-3.467,1.559-3.467,3.562c0,1.989,1.658,3.536,3.467,3.536
		c0.862,0,1.548-0.377,1.904-0.807h0.054v0.511c0,1.357-0.739,2.084-1.932,2.084c-0.971,0-1.574-0.687-1.821-1.265l-1.384,0.565
		c0.396,0.939,1.452,2.097,3.205,2.097c1.863,0,3.44-1.075,3.44-3.698v-6.37h-1.509V19.486z M66.039,24.393
		c-1.095,0-2.013-0.901-2.013-2.138c0-1.25,0.918-2.163,2.013-2.163c1.083,0,1.933,0.913,1.933,2.163
		C67.972,23.491,67.122,24.393,66.039,24.393z M86.771,15.145H82.97v10.431h1.585v-3.951h2.217c1.758,0,3.487-1.25,3.487-3.241
		C90.259,16.394,88.529,15.145,86.771,15.145z M86.812,20.172h-2.257v-3.575h2.257c1.188,0,1.861,0.963,1.861,1.786
		C88.673,19.193,87.999,20.172,86.812,20.172z M96.617,18.674c-1.147,0-2.339,0.496-2.829,1.598l1.407,0.577
		c0.3-0.577,0.863-0.767,1.45-0.767c0.821,0,1.655,0.484,1.668,1.343v0.107c-0.288-0.161-0.903-0.402-1.654-0.402
		c-1.519,0-3.064,0.817-3.064,2.349c0,1.395,1.245,2.294,2.641,2.294c1.066,0,1.654-0.469,2.022-1.02h0.056v0.805h1.532v-4
		C99.846,19.707,98.437,18.674,96.617,18.674z M96.427,24.392c-0.521,0-1.245-0.257-1.245-0.887c0-0.805,0.902-1.113,1.683-1.113
		c0.696,0,1.025,0.146,1.449,0.349C98.19,23.707,97.343,24.392,96.427,24.392z M105.423,18.902l-1.818,4.522h-0.054l-1.887-4.522
		h-1.708l2.829,6.319l-1.613,3.518h1.654l4.364-9.837H105.423z M91.134,25.575h1.587V15.145h-1.587V25.575z"/>
	<g>
		
			<linearGradient id="SVGID_1_" gradientUnits="userSpaceOnUse" x1="18.7485" y1="28.2773" x2="4.6141" y2="14.1429" gradientTransform="matrix(1 0 0 -1 0 36)">
			<stop  offset="0" style="stop-color:#00A0FF"/>
			<stop  offset="0.0066" style="stop-color:#00A1FF"/>
			<stop  offset="0.2601" style="stop-color:#00BEFF"/>
			<stop  offset="0.5122" style="stop-color:#00D2FF"/>
			<stop  offset="0.7604" style="stop-color:#00DFFF"/>
			<stop  offset="1" style="stop-color:#00E3FF"/>
		</linearGradient>
		<path style="fill:url(#SVGID_1_);" d="M9.079,6.833C8.831,7.09,8.685,7.489,8.685,8.006v18.453c0,0.516,0.146,0.916,0.394,1.172
			l0.063,0.061l10.535-10.337v-0.122v-0.122L9.142,6.773L9.079,6.833z"/>
		
			<linearGradient id="SVGID_2_" gradientUnits="userSpaceOnUse" x1="28.9741" y1="18.7686" x2="8.4002" y2="18.7686" gradientTransform="matrix(1 0 0 -1 0 36)">
			<stop  offset="0" style="stop-color:#FFE000"/>
			<stop  offset="0.4087" style="stop-color:#FFBD00"/>
			<stop  offset="0.7754" style="stop-color:#FFA500"/>
			<stop  offset="1" style="stop-color:#FF9C00"/>
		</linearGradient>
		<path style="fill:url(#SVGID_2_);" d="M23.188,20.802l-3.511-3.448v-0.122v-0.122l3.512-3.447l0.08,0.044l4.16,2.32
			c1.188,0.662,1.188,1.747,0,2.409l-4.16,2.32L23.188,20.802z"/>
		
			<linearGradient id="SVGID_3_" gradientUnits="userSpaceOnUse" x1="21.2847" y1="16.9165" x2="2.0555" y2="-2.3127" gradientTransform="matrix(1 0 0 -1 0 36)">
			<stop  offset="0" style="stop-color:#FF3A44"/>
			<stop  offset="1" style="stop-color:#C31162"/>
		</linearGradient>
		<path style="fill:url(#SVGID_3_);" d="M23.268,20.758l-3.592-3.525L9.079,27.631c0.392,0.408,1.039,0.458,1.767,0.053
			L23.268,20.758"/>
		
			<linearGradient id="SVGID_4_" gradientUnits="userSpaceOnUse" x1="6.4717" y1="35.4316" x2="15.0595" y2="26.8438" gradientTransform="matrix(1 0 0 -1 0 36)">
			<stop  offset="0" style="stop-color:#32A071"/>
			<stop  offset="0.0685" style="stop-color:#2DA771"/>
			<stop  offset="0.4762" style="stop-color:#15CF74"/>
			<stop  offset="0.8009" style="stop-color:#06E775"/>
			<stop  offset="1" style="stop-color:#00F076"/>
		</linearGradient>
		<path style="fill:url(#SVGID_4_);" d="M23.268,13.708L10.846,6.782c-0.729-0.406-1.375-0.355-1.767,0.051l10.597,10.399
			L23.268,13.708z"/>
		<g>
			<path style="opacity:0.2;enable-background:new    ;" d="M23.188,20.679l-12.342,6.882c-0.69,0.385-1.308,0.359-1.704,0.009l0,0
				l-0.063,0.063l0,0l0.063,0.061l0-0.001c0.396,0.35,1.014,0.377,1.704-0.008l12.422-6.926L23.188,20.679z"/>
			<path style="opacity:0.12;enable-background:new    ;" d="M9.079,27.51c-0.248-0.257-0.394-0.655-0.394-1.172v0.121
				c0,0.516,0.146,0.916,0.394,1.173l0.063-0.063L9.079,27.51z"/>
		</g>
		<path style="opacity:0.12;enable-background:new    ;" d="M27.428,18.315l-4.239,2.363l0.08,0.079l4.16-2.32
			c0.594-0.332,0.891-0.768,0.891-1.205l0,0C28.269,17.627,27.966,18.014,27.428,18.315z"/>
		<path style="opacity:0.25;fill:#FFFFFF;enable-background:new    ;" d="M10.846,6.904l16.582,9.245
			c0.539,0.301,0.841,0.688,0.891,1.083l0,0c0-0.437-0.296-0.874-0.891-1.205L10.846,6.783C9.657,6.12,8.685,6.67,8.685,8.006v0.121
			C8.685,6.792,9.657,6.242,10.846,6.904z"/>
	</g>
</g>
</svg>
